<svg xmlns="http://www.w3.org/2000/svg" width="20" height="20" viewBox="0 0 20 20" fill="none">
<path fill-rule="evenodd" clip-rule="evenodd" d="M9.99984 3.33341C6.31794 3.33341 3.33317 6.31818 3.33317 10.0001C3.33317 13.682 6.31794 16.6667 9.99984 16.6667C13.6817 16.6667 16.6665 13.682 16.6665 10.0001C16.6665 6.31818 13.6817 3.33341 9.99984 3.33341ZM1.6665 10.0001C1.6665 5.39771 5.39746 1.66675 9.99984 1.66675C14.6022 1.66675 18.3332 5.39771 18.3332 10.0001C18.3332 14.6025 14.6022 18.3334 9.99984 18.3334C5.39746 18.3334 1.6665 14.6025 1.6665 10.0001ZM9.99984 6.66675C10.4601 6.66675 10.8332 7.03984 10.8332 7.50008V9.16675H12.4998C12.9601 9.16675 13.3332 9.53984 13.3332 10.0001C13.3332 10.4603 12.9601 10.8334 12.4998 10.8334H10.8332V12.5001C10.8332 12.9603 10.4601 13.3334 9.99984 13.3334C9.5396 13.3334 9.1665 12.9603 9.1665 12.5001V10.8334H7.49984C7.0396 10.8334 6.6665 10.4603 6.6665 10.0001C6.6665 9.53984 7.0396 9.16675 7.49984 9.16675H9.1665V7.50008C9.1665 7.03984 9.5396 6.66675 9.99984 6.66675Z" fill="#14B8A6"/>
</svg>