<svg xmlns="http://www.w3.org/2000/svg" width="32" height="33" viewBox="0 0 32 33" fill="none">
<g clip-path="url(#clip0_1210_20018)">
<path fill-rule="evenodd" clip-rule="evenodd" d="M15.6484 24.5486C15.1798 25.0173 14.42 25.0173 13.9514 24.5486L6.75137 17.3486C6.28274 16.88 6.28274 16.1202 6.75137 15.6516L13.9514 8.45157C14.42 7.98294 15.1798 7.98294 15.6484 8.45157C16.1171 8.9202 16.1171 9.68 15.6484 10.1486L10.497 15.3001H24.3999C25.0626 15.3001 25.5999 15.8374 25.5999 16.5001C25.5999 17.1628 25.0626 17.7001 24.3999 17.7001L10.497 17.7001L15.6484 22.8516C16.1171 23.3202 16.1171 24.08 15.6484 24.5486Z" fill="#111827"/>
</g>
<defs>
<clipPath id="clip0_1210_20018">
<rect y="0.5" width="32" height="32" rx="16" fill="white"/>
</clipPath>
</defs>
</svg>