<svg xmlns="http://www.w3.org/2000/svg" width="16" height="16" viewBox="0 0 16 16" fill="none">
<path d="M8.00105 9.99992C10.7208 9.99992 12.9651 12.0357 13.2931 14.6666H2.70898C3.03704 12.0357 5.2813 9.99992 8.00105 9.99992ZM6.79232 11.5196C5.83656 11.8226 5.03156 12.4755 4.53532 13.3333H8.00105L6.79232 11.5196ZM9.21005 11.5197L8.00105 13.3333H11.4668C10.9706 12.4756 10.1657 11.8227 9.21005 11.5197ZM12.0011 1.33325V5.33325C12.0011 7.54239 10.2102 9.33325 8.00105 9.33325C5.79192 9.33325 4.00106 7.54239 4.00106 5.33325V1.33325H12.0011ZM5.33439 5.33325C5.33439 6.80599 6.5283 7.99992 8.00105 7.99992C9.47385 7.99992 10.6677 6.80599 10.6677 5.33325H5.33439ZM10.6677 2.66659H5.33439L5.33432 3.99992H10.6677L10.6677 2.66659Z" fill="#18181B"/>
</svg>