<svg xmlns="http://www.w3.org/2000/svg" width="17" height="16" viewBox="0 0 17 16" fill="none">
<path d="M3.16667 1.33333H13.8333C14.2015 1.33333 14.5 1.63181 14.5 1.99999V14C14.5 14.3682 14.2015 14.6667 13.8333 14.6667H3.16667C2.79848 14.6667 2.5 14.3682 2.5 14V1.99999C2.5 1.63181 2.79848 1.33333 3.16667 1.33333ZM3.83333 2.66666V13.3333H13.1667V2.66666H3.83333ZM5.16667 3.99999H11.8333V6.66666H5.16667V3.99999ZM5.16667 8H6.5V9.33333H5.16667V8ZM5.16667 10.6667H6.5V12H5.16667V10.6667ZM7.83333 8H9.16667V9.33333H7.83333V8ZM7.83333 10.6667H9.16667V12H7.83333V10.6667ZM10.5 8H11.8333V12H10.5V8Z" fill="#042F2E"/>
</svg>