<svg xmlns="http://www.w3.org/2000/svg" width="16" height="16" viewBox="0 0 16 16" fill="none">
<path d="M4.66927 1.99984V0.666504H6.0026V1.99984H10.0026V0.666504H11.3359V1.99984H14.0026C14.3708 1.99984 14.6693 2.29832 14.6693 2.6665V5.99984H13.3359V3.33317H11.3359V4.6665H10.0026V3.33317H6.0026V4.6665H4.66927V3.33317H2.66927V12.6665H6.66927V13.9998H2.0026C1.63442 13.9998 1.33594 13.7014 1.33594 13.3332V2.6665C1.33594 2.29832 1.63442 1.99984 2.0026 1.99984H4.66927ZM11.3359 7.99984C9.8632 7.99984 8.66927 9.19377 8.66927 10.6665C8.66927 12.1392 9.8632 13.3332 11.3359 13.3332C12.8087 13.3332 14.0026 12.1392 14.0026 10.6665C14.0026 9.19377 12.8087 7.99984 11.3359 7.99984ZM7.33594 10.6665C7.33594 8.45737 9.1268 6.6665 11.3359 6.6665C13.5451 6.6665 15.3359 8.45737 15.3359 10.6665C15.3359 12.8756 13.5451 14.6665 11.3359 14.6665C9.1268 14.6665 7.33594 12.8756 7.33594 10.6665ZM10.6693 8.6665V10.9426L12.1979 12.4712L13.1407 11.5284L12.0026 10.3904V8.6665H10.6693Z" fill="#09090B"/>
</svg>