<svg xmlns="http://www.w3.org/2000/svg" width="20" height="20" viewBox="0 0 20 20" fill="none">
<path fill-rule="evenodd" clip-rule="evenodd" d="M9.99984 3.33341C6.31794 3.33341 3.33317 6.31818 3.33317 10.0001C3.33317 13.682 6.31794 16.6667 9.99984 16.6667C13.6817 16.6667 16.6665 13.682 16.6665 10.0001C16.6665 6.31818 13.6817 3.33341 9.99984 3.33341ZM1.6665 10.0001C1.6665 5.39771 5.39746 1.66675 9.99984 1.66675C14.6022 1.66675 18.3332 5.39771 18.3332 10.0001C18.3332 14.6025 14.6022 18.3334 9.99984 18.3334C5.39746 18.3334 1.6665 14.6025 1.6665 10.0001ZM9.99984 5.83342C10.4601 5.83342 10.8332 6.20651 10.8332 6.66675V9.6549L13.0891 11.9108C13.4145 12.2363 13.4145 12.7639 13.0891 13.0893C12.7637 13.4148 12.236 13.4148 11.9106 13.0893L9.41058 10.5893C9.2543 10.4331 9.1665 10.2211 9.1665 10.0001V6.66675C9.1665 6.20651 9.5396 5.83342 9.99984 5.83342Z" fill="#111827"/>
</svg>