<svg xmlns="http://www.w3.org/2000/svg" width="16" height="16" viewBox="0 0 16 16" fill="none">
<path fill-rule="evenodd" clip-rule="evenodd" d="M3.99967 3.33334C3.99967 2.22877 4.89511 1.33334 5.99967 1.33334H9.99967C11.1042 1.33334 11.9997 2.22877 11.9997 3.33334V4.11381C12.7765 4.38837 13.333 5.1292 13.333 6.00001V6.78048C14.1098 7.05504 14.6663 7.79586 14.6663 8.66668V12.6667C14.6663 13.7712 13.7709 14.6667 12.6663 14.6667H3.33301C2.22844 14.6667 1.33301 13.7712 1.33301 12.6667V8.66668C1.33301 7.79586 1.88955 7.05504 2.66634 6.78048V6.00001C2.66634 5.1292 3.22288 4.38837 3.99967 4.11381V3.33334ZM5.33301 4.00001H10.6663V3.33334C10.6663 2.96515 10.3679 2.66668 9.99967 2.66668H5.99967C5.63148 2.66668 5.33301 2.96515 5.33301 3.33334V4.00001ZM3.99967 6.66668H11.9997V6.00001C11.9997 5.63182 11.7012 5.33334 11.333 5.33334H4.66634C4.29815 5.33334 3.99967 5.63182 3.99967 6.00001V6.66668ZM3.33301 8.00001C2.96482 8.00001 2.66634 8.29849 2.66634 8.66668V12.6667C2.66634 13.0349 2.96482 13.3333 3.33301 13.3333H12.6663C13.0345 13.3333 13.333 13.0349 13.333 12.6667V8.66668C13.333 8.29849 13.0345 8.00001 12.6663 8.00001H3.33301Z" fill="#09090B"/>
</svg>