<svg xmlns="http://www.w3.org/2000/svg" width="20" height="20" viewBox="0 0 20 20" fill="none">
<path d="M13.3333 10.625H6.66666C6.32499 10.625 6.04166 10.3417 6.04166 10C6.04166 9.65833 6.32499 9.375 6.66666 9.375H13.3333C13.675 9.375 13.9583 9.65833 13.9583 10C13.9583 10.3417 13.675 10.625 13.3333 10.625Z" fill="#09090B"/>
<path d="M10 13.9582C9.65833 13.9582 9.375 13.6748 9.375 13.3332V6.6665C9.375 6.32484 9.65833 6.0415 10 6.0415C10.3417 6.0415 10.625 6.32484 10.625 6.6665V13.3332C10.625 13.6748 10.3417 13.9582 10 13.9582Z" fill="#09090B"/>
<path d="M12.5 18.9582H7.49999C2.97499 18.9582 1.04166 17.0248 1.04166 12.4998V7.49984C1.04166 2.97484 2.97499 1.0415 7.49999 1.0415H12.5C17.025 1.0415 18.9583 2.97484 18.9583 7.49984V12.4998C18.9583 17.0248 17.025 18.9582 12.5 18.9582ZM7.49999 2.2915C3.65832 2.2915 2.29166 3.65817 2.29166 7.49984V12.4998C2.29166 16.3415 3.65832 17.7082 7.49999 17.7082H12.5C16.3417 17.7082 17.7083 16.3415 17.7083 12.4998V7.49984C17.7083 3.65817 16.3417 2.2915 12.5 2.2915H7.49999Z" fill="#09090B"/>
</svg>