<svg xmlns="http://www.w3.org/2000/svg" width="16" height="16" viewBox="0 0 16 16" fill="none">
<path fill-rule="evenodd" clip-rule="evenodd" d="M7.70186 1.40363C7.88954 1.30979 8.11046 1.30979 8.29814 1.40363L13.6315 4.0703C13.8573 4.18323 14 4.41407 14 4.66659V11.3333C14 11.5858 13.8573 11.8166 13.6315 11.9295L8.29814 14.5962C8.11046 14.69 7.88954 14.69 7.70186 14.5962L2.36852 11.9295C2.14267 11.8166 2 11.5858 2 11.3333V4.66659C2 4.41407 2.14267 4.18323 2.36852 4.0703L7.70186 1.40363ZM3.33333 5.74527L7.33333 7.74528V12.9212L3.33333 10.9212V5.74527ZM8.66667 12.9212L12.6667 10.9212V5.74528L8.66667 7.74528V12.9212ZM8 6.5879L11.8426 4.66659L8 2.74527L4.15738 4.66659L8 6.5879Z" fill="#09090B"/>
</svg>