<svg xmlns="http://www.w3.org/2000/svg" width="17" height="16" viewBox="0 0 17 16" fill="none">
<path d="M15.1668 11.3348C15.1662 13.2487 13.8212 14.8484 12.025 15.2411L11.5996 13.9651C12.4023 13.8341 13.0845 13.3447 13.4768 12.6667H11.8335C11.0971 12.6667 10.5002 12.0697 10.5002 11.3333V8.66667C10.5002 7.93027 11.0971 7.33334 11.8335 7.33334H13.7922C13.4642 4.70246 11.2199 2.66667 8.50016 2.66667C5.78042 2.66667 3.53616 4.70246 3.20809 7.33334H5.16683C5.90321 7.33334 6.50016 7.93027 6.50016 8.66667V11.3333C6.50016 12.0697 5.90321 12.6667 5.16683 12.6667H3.16683C2.43045 12.6667 1.8335 12.0697 1.8335 11.3333V8C1.8335 4.3181 4.81826 1.33334 8.50016 1.33334C12.182 1.33334 15.1668 4.3181 15.1668 8V8.6658V8.66667V11.3333V11.3348Z" fill="#042F2E"/>
</svg>