<svg xmlns="http://www.w3.org/2000/svg" width="16" height="16" viewBox="0 0 16 16" fill="none">
<path d="M2 8C2 8.3682 2.29848 8.66667 2.66667 8.66667H6.66667C7.03487 8.66667 7.33333 8.3682 7.33333 8V2.66667C7.33333 2.29848 7.03487 2 6.66667 2H2.66667C2.29848 2 2 2.29848 2 2.66667V8ZM2 13.3333C2 13.7015 2.29848 14 2.66667 14H6.66667C7.03487 14 7.33333 13.7015 7.33333 13.3333V10.6667C7.33333 10.2985 7.03487 10 6.66667 10H2.66667C2.29848 10 2 10.2985 2 10.6667V13.3333ZM8.66667 13.3333C8.66667 13.7015 8.96513 14 9.33333 14H13.3333C13.7015 14 14 13.7015 14 13.3333V8C14 7.6318 13.7015 7.33333 13.3333 7.33333H9.33333C8.96513 7.33333 8.66667 7.6318 8.66667 8V13.3333ZM9.33333 2C8.96513 2 8.66667 2.29848 8.66667 2.66667V5.33333C8.66667 5.70152 8.96513 6 9.33333 6H13.3333C13.7015 6 14 5.70152 14 5.33333V2.66667C14 2.29848 13.7015 2 13.3333 2H9.33333Z" fill="#042F2E"/>
</svg>