<svg xmlns="http://www.w3.org/2000/svg" width="16" height="16" viewBox="0 0 16 16" fill="none">
<path fill-rule="evenodd" clip-rule="evenodd" d="M4.66699 2.66666C4.2988 2.66666 4.00033 2.96514 4.00033 3.33333V12.6667C4.00033 13.0349 4.2988 13.3333 4.66699 13.3333H11.3337C11.7018 13.3333 12.0003 13.0349 12.0003 12.6667V6.27614L8.39085 2.66666H4.66699ZM2.66699 3.33333C2.66699 2.22876 3.56242 1.33333 4.66699 1.33333H8.39085C8.74447 1.33333 9.08361 1.4738 9.33366 1.72385L12.9431 5.33333C13.1932 5.58338 13.3337 5.92252 13.3337 6.27614V12.6667C13.3337 13.7712 12.4382 14.6667 11.3337 14.6667H4.66699C3.56242 14.6667 2.66699 13.7712 2.66699 12.6667V3.33333Z" fill="#09090B"/>
</svg>