<svg xmlns="http://www.w3.org/2000/svg" width="16" height="16" viewBox="0 0 16 16" fill="none">
<path fill-rule="evenodd" clip-rule="evenodd" d="M6.66667 2.66668C6.29848 2.66668 6 2.96515 6 3.33334V10C6 10.3682 6.29848 10.6667 6.66667 10.6667H12C12.3682 10.6667 12.6667 10.3682 12.6667 10V5.60949L9.72386 2.66668H6.66667ZM4.66667 3.33334C4.66667 2.22877 5.5621 1.33334 6.66667 1.33334H9.72386C10.0775 1.33334 10.4166 1.47382 10.6667 1.72387L13.6095 4.66668C13.8595 4.91673 14 5.25587 14 5.60949V10C14 11.1046 13.1046 12 12 12H11.3333V12.6667C11.3333 13.7712 10.4379 14.6667 9.33333 14.6667H4C2.89543 14.6667 2 13.7712 2 12.6667V6.00001C2 4.89544 2.89543 4.00001 4 4.00001H4.66667V3.33334ZM4.66667 5.33334H4C3.63181 5.33334 3.33333 5.63182 3.33333 6.00001V12.6667C3.33333 13.0349 3.63181 13.3333 4 13.3333H9.33333C9.70152 13.3333 10 13.0349 10 12.6667V12H6.66667C5.5621 12 4.66667 11.1046 4.66667 10V5.33334Z" fill="#09090B"/>
</svg>