<svg xmlns="http://www.w3.org/2000/svg" width="16" height="16" viewBox="0 0 16 16" fill="none">
<path d="M8.00065 1.33325C11.6825 1.33325 14.6673 4.31802 14.6673 7.99992C14.6673 11.6818 11.6825 14.6666 8.00065 14.6666C4.31875 14.6666 1.33398 11.6818 1.33398 7.99992C1.33398 4.31802 4.31875 1.33325 8.00065 1.33325ZM5.33398 8.66659L2.70866 8.66725C3.00975 11.0794 4.92174 12.9912 7.33398 13.292V10.6666C6.22942 10.6666 5.33398 9.77119 5.33398 8.66659ZM13.2927 8.66725L10.6673 8.66659C10.6673 9.77119 9.77192 10.6666 8.66732 10.6666L8.66798 13.2919C11.0799 12.9909 12.9916 11.0792 13.2927 8.66725ZM9.33398 7.99992H6.66732V8.66659C6.66732 9.03479 6.96578 9.33325 7.33398 9.33325H8.66732C9.03552 9.33325 9.33398 9.03479 9.33398 8.66659V7.99992ZM8.00065 2.66659C5.2809 2.66659 3.03662 4.70239 2.70858 7.33325H5.33398C5.33398 6.96505 5.63246 6.66659 6.00065 6.66659H10.0007C10.3689 6.66659 10.6673 6.96505 10.6673 7.33325H13.2927C12.9647 4.70239 10.7204 2.66659 8.00065 2.66659Z" fill="#18181B"/>
</svg>