<svg xmlns="http://www.w3.org/2000/svg" width="17" height="17" viewBox="0 0 17 17" fill="none">
<mask id="mask0_640_22114" style="mask-type:alpha" maskUnits="userSpaceOnUse" x="0" y="0" width="17" height="17">
<rect x="0.5" y="0.666748" width="16" height="16" fill="#D9D9D9"/>
</mask>
<g mask="url(#mask0_640_22114)">
<path d="M6.49984 14.0002C6.13317 14.0002 5.81928 13.8696 5.55817 13.6085C5.29706 13.3474 5.1665 13.0335 5.1665 12.6668C5.1665 12.3002 5.29706 11.9863 5.55817 11.7252C5.81928 11.4641 6.13317 11.3335 6.49984 11.3335C6.8665 11.3335 7.18039 11.4641 7.4415 11.7252C7.70262 11.9863 7.83317 12.3002 7.83317 12.6668C7.83317 13.0335 7.70262 13.3474 7.4415 13.6085C7.18039 13.8696 6.8665 14.0002 6.49984 14.0002ZM10.4998 14.0002C10.1332 14.0002 9.81928 13.8696 9.55817 13.6085C9.29706 13.3474 9.1665 13.0335 9.1665 12.6668C9.1665 12.3002 9.29706 11.9863 9.55817 11.7252C9.81928 11.4641 10.1332 11.3335 10.4998 11.3335C10.8665 11.3335 11.1804 11.4641 11.4415 11.7252C11.7026 11.9863 11.8332 12.3002 11.8332 12.6668C11.8332 13.0335 11.7026 13.3474 11.4415 13.6085C11.1804 13.8696 10.8665 14.0002 10.4998 14.0002ZM6.49984 10.0002C6.13317 10.0002 5.81928 9.86961 5.55817 9.6085C5.29706 9.34739 5.1665 9.0335 5.1665 8.66683C5.1665 8.30016 5.29706 7.98627 5.55817 7.72516C5.81928 7.46405 6.13317 7.3335 6.49984 7.3335C6.8665 7.3335 7.18039 7.46405 7.4415 7.72516C7.70262 7.98627 7.83317 8.30016 7.83317 8.66683C7.83317 9.0335 7.70262 9.34739 7.4415 9.6085C7.18039 9.86961 6.8665 10.0002 6.49984 10.0002ZM10.4998 10.0002C10.1332 10.0002 9.81928 9.86961 9.55817 9.6085C9.29706 9.34739 9.1665 9.0335 9.1665 8.66683C9.1665 8.30016 9.29706 7.98627 9.55817 7.72516C9.81928 7.46405 10.1332 7.3335 10.4998 7.3335C10.8665 7.3335 11.1804 7.46405 11.4415 7.72516C11.7026 7.98627 11.8332 8.30016 11.8332 8.66683C11.8332 9.0335 11.7026 9.34739 11.4415 9.6085C11.1804 9.86961 10.8665 10.0002 10.4998 10.0002ZM6.49984 6.00016C6.13317 6.00016 5.81928 5.86961 5.55817 5.6085C5.29706 5.34739 5.1665 5.0335 5.1665 4.66683C5.1665 4.30016 5.29706 3.98627 5.55817 3.72516C5.81928 3.46405 6.13317 3.3335 6.49984 3.3335C6.8665 3.3335 7.18039 3.46405 7.4415 3.72516C7.70262 3.98627 7.83317 4.30016 7.83317 4.66683C7.83317 5.0335 7.70262 5.34739 7.4415 5.6085C7.18039 5.86961 6.8665 6.00016 6.49984 6.00016ZM10.4998 6.00016C10.1332 6.00016 9.81928 5.86961 9.55817 5.6085C9.29706 5.34739 9.1665 5.0335 9.1665 4.66683C9.1665 4.30016 9.29706 3.98627 9.55817 3.72516C9.81928 3.46405 10.1332 3.3335 10.4998 3.3335C10.8665 3.3335 11.1804 3.46405 11.4415 3.72516C11.7026 3.98627 11.8332 4.30016 11.8332 4.66683C11.8332 5.0335 11.7026 5.34739 11.4415 5.6085C11.1804 5.86961 10.8665 6.00016 10.4998 6.00016Z" fill="#3F3F46"/>
</g>
</svg>