<svg xmlns="http://www.w3.org/2000/svg" width="32" height="32" viewBox="0 0 32 32" fill="none">
<path fill-rule="evenodd" clip-rule="evenodd" d="M9.3335 5.33341C8.59712 5.33341 8.00016 5.93037 8.00016 6.66675V25.3334C8.00016 26.0698 8.59712 26.6667 9.3335 26.6667H22.6668C23.4032 26.6667 24.0002 26.0698 24.0002 25.3334V12.5524L16.7812 5.33341H9.3335ZM5.3335 6.66675C5.3335 4.45761 7.12436 2.66675 9.3335 2.66675H16.7812C17.4885 2.66675 18.1667 2.9477 18.6668 3.4478L25.8858 10.6667C26.3859 11.1668 26.6668 11.8451 26.6668 12.5524V25.3334C26.6668 27.5426 24.876 29.3334 22.6668 29.3334H9.3335C7.12436 29.3334 5.3335 27.5426 5.3335 25.3334V6.66675ZM16.0002 12.0001C16.7365 12.0001 17.3335 12.597 17.3335 13.3334V16.0001H20.0002C20.7365 16.0001 21.3335 16.597 21.3335 17.3334C21.3335 18.0698 20.7365 18.6667 20.0002 18.6667H17.3335V21.3334C17.3335 22.0698 16.7365 22.6667 16.0002 22.6667C15.2638 22.6667 14.6668 22.0698 14.6668 21.3334V18.6667H12.0002C11.2638 18.6667 10.6668 18.0698 10.6668 17.3334C10.6668 16.597 11.2638 16.0001 12.0002 16.0001H14.6668V13.3334C14.6668 12.597 15.2638 12.0001 16.0002 12.0001Z" fill="#111827"/>
</svg>