<svg xmlns="http://www.w3.org/2000/svg" width="16" height="16" viewBox="0 0 16 16" fill="none">
<path fill-rule="evenodd" clip-rule="evenodd" d="M1.33325 2.66667C1.33325 2.29848 1.63173 2 1.99992 2H10.6666C11.0348 2 11.3333 2.29848 11.3333 2.66667C11.3333 3.03486 11.0348 3.33333 10.6666 3.33333H1.99992C1.63173 3.33333 1.33325 3.03486 1.33325 2.66667ZM1.33325 5.33333C1.33325 4.96514 1.63173 4.66667 1.99992 4.66667H7.99992C8.36811 4.66667 8.66659 4.96514 8.66659 5.33333C8.66659 5.70152 8.36811 6 7.99992 6H1.99992C1.63173 6 1.33325 5.70152 1.33325 5.33333ZM10.6666 6.94281L9.13799 8.4714C8.87764 8.73175 8.45553 8.73175 8.19518 8.4714C7.93483 8.21106 7.93483 7.78895 8.19518 7.5286L10.8618 4.86193C11.1222 4.60158 11.5443 4.60158 11.8047 4.86193L14.4713 7.5286C14.7317 7.78895 14.7317 8.21106 14.4713 8.4714C14.211 8.73175 13.7889 8.73175 13.5285 8.4714L11.9999 6.94281V13.3333C11.9999 13.7015 11.7014 14 11.3333 14C10.9651 14 10.6666 13.7015 10.6666 13.3333V6.94281ZM1.33325 8C1.33325 7.63181 1.63173 7.33333 1.99992 7.33333H5.99992C6.36811 7.33333 6.66659 7.63181 6.66659 8C6.66659 8.36819 6.36811 8.66667 5.99992 8.66667H1.99992C1.63173 8.66667 1.33325 8.36819 1.33325 8Z" fill="#71717A"/>
</svg>