<svg xmlns="http://www.w3.org/2000/svg" width="16" height="16" viewBox="0 0 16 16" fill="none">
<g clip-path="url(#clip0_408_53959)">
<g clip-path="url(#clip1_408_53959)">
<path d="M14.5377 6.6945H14.0007V6.66683H8.00065V9.3335H11.7683C11.2187 10.8858 9.74165 12.0002 8.00065 12.0002C5.79165 12.0002 4.00065 10.2092 4.00065 8.00016C4.00065 5.79116 5.79165 4.00016 8.00065 4.00016C9.02032 4.00016 9.94798 4.38483 10.6543 5.01316L12.54 3.1275C11.3493 2.01783 9.75665 1.3335 8.00065 1.3335C4.31898 1.3335 1.33398 4.3185 1.33398 8.00016C1.33398 11.6818 4.31898 14.6668 8.00065 14.6668C11.6823 14.6668 14.6673 11.6818 14.6673 8.00016C14.6673 7.55316 14.6213 7.11683 14.5377 6.6945Z" fill="#FFC107"/>
<path d="M2.10156 4.89716L4.2919 6.5035C4.88456 5.03616 6.3199 4.00016 7.99956 4.00016C9.01923 4.00016 9.9469 4.38483 10.6532 5.01316L12.5389 3.1275C11.3482 2.01783 9.75556 1.3335 7.99956 1.3335C5.4389 1.3335 3.21823 2.77916 2.10156 4.89716Z" fill="#FF3D00"/>
<path d="M7.99945 14.6669C9.72145 14.6669 11.2861 14.0079 12.4691 12.9362L10.4058 11.1902C9.73645 11.6972 8.90445 12.0002 7.99945 12.0002C6.26545 12.0002 4.79312 10.8946 4.23845 9.35156L2.06445 11.0266C3.16779 13.1856 5.40845 14.6669 7.99945 14.6669Z" fill="#4CAF50"/>
<path d="M14.537 6.69417H14V6.6665H8V9.33317H11.7677C11.5037 10.0788 11.024 10.7218 10.4053 11.1902L10.4063 11.1895L12.4697 12.9355C12.3237 13.0682 14.6667 11.3332 14.6667 7.99984C14.6667 7.55284 14.6207 7.1165 14.537 6.69417Z" fill="#1976D2"/>
</g>
</g>
<defs>
<clipPath id="clip0_408_53959">
<rect width="16" height="16" fill="white"/>
</clipPath>
<clipPath id="clip1_408_53959">
<rect width="16" height="16" fill="white"/>
</clipPath>
</defs>
</svg>