<svg xmlns="http://www.w3.org/2000/svg" width="16" height="16" viewBox="0 0 16 16" fill="none">
<path d="M7.1718 7.88544L12.4044 2.65283L13.3472 3.59564L12.4044 4.53845L14.0543 6.18837L13.1115 7.13117L11.4616 5.48126L10.5188 6.42407L11.933 7.83831L10.9902 8.78111L9.576 7.36691L8.1146 8.82824C8.97207 10.1225 8.83067 11.8834 7.69034 13.0237C6.38861 14.3255 4.27806 14.3255 2.97632 13.0237C1.67456 11.722 1.67456 9.61144 2.97632 8.30971C4.11662 7.16937 5.87756 7.02797 7.1718 7.88544ZM6.74754 12.0809C7.5286 11.2998 7.5286 10.0336 6.74754 9.25251C5.9665 8.47144 4.70017 8.47144 3.91912 9.25251C3.13808 10.0336 3.13808 11.2998 3.91912 12.0809C4.70017 12.862 5.9665 12.862 6.74754 12.0809Z" fill="#18181B"/>
</svg>