<svg xmlns="http://www.w3.org/2000/svg" width="20" height="20" viewBox="0 0 20 20" fill="none">
<path d="M15 14.1667C15 14.9416 15 15.3291 14.9148 15.647C14.6836 16.5098 14.0098 17.1836 13.147 17.4148C12.8291 17.5 12.4416 17.5 11.6667 17.5H6.5C5.09987 17.5 4.3998 17.5 3.86502 17.2275C3.39462 16.9878 3.01217 16.6054 2.77248 16.135C2.5 15.6002 2.5 14.9001 2.5 13.5V6.5C2.5 5.09987 2.5 4.3998 2.77248 3.86502C3.01217 3.39462 3.39462 3.01217 3.86502 2.77248C4.3998 2.5 5.09987 2.5 6.5 2.5H11.6667C12.4416 2.5 12.8291 2.5 13.147 2.58519C14.0098 2.81635 14.6836 3.49022 14.9148 4.35295C15 4.67087 15 5.05836 15 5.83333M10 6.66667L6.66667 10M6.66667 10L10 13.3333M6.66667 10H17.5" stroke="#EF4444" stroke-width="2" stroke-linecap="round" stroke-linejoin="round"/>
</svg>