<svg xmlns="http://www.w3.org/2000/svg" width="16" height="16" viewBox="0 0 16 16" fill="none">
<path d="M1.33398 3.33325L6.00065 1.33325L10.0007 3.33325L14.2027 1.53239C14.3719 1.45987 14.5679 1.53825 14.6404 1.70746C14.6581 1.74895 14.6673 1.79363 14.6673 1.83877V12.6666L10.0007 14.6666L6.00065 12.6666L1.79862 14.4675C1.62941 14.54 1.43346 14.4616 1.36094 14.2924C1.34315 14.2509 1.33398 14.2062 1.33398 14.1611V3.33325ZM10.6673 12.9303L13.334 11.7874V3.35531L10.6673 4.49816V12.9303ZM9.33398 12.8425V4.49063L6.66732 3.1573V11.5092L9.33398 12.8425ZM5.33398 11.5017V3.06959L2.66732 4.21245V12.6445L5.33398 11.5017Z" fill="#18181B"/>
</svg>