<svg xmlns="http://www.w3.org/2000/svg" width="14" height="15" viewBox="0 0 14 15" fill="none">
<path d="M7.0013 1.66675C10.2229 1.66675 12.8346 4.27842 12.8346 7.50008C12.8346 10.7217 10.2229 13.3334 7.0013 13.3334C3.77964 13.3334 1.16797 10.7217 1.16797 7.50008C1.16797 4.27842 3.77964 1.66675 7.0013 1.66675ZM7.0013 2.83341C4.42397 2.83341 2.33464 4.92275 2.33464 7.50008C2.33464 10.0774 4.42397 12.1667 7.0013 12.1667C9.57864 12.1667 11.668 10.0774 11.668 7.50008C11.668 4.92275 9.57864 2.83341 7.0013 2.83341ZM7.0013 3.41675C7.59514 3.41675 8.15934 3.54351 8.66841 3.77145L7.75695 4.68225C7.51592 4.61778 7.26264 4.58341 7.0013 4.58341C5.39047 4.58341 4.08464 5.88925 4.08464 7.50008C4.08464 8.30549 4.41109 9.03466 4.93891 9.56246L4.11395 10.3874L4.02306 10.2936C3.33772 9.56321 2.91797 8.58071 2.91797 7.50008C2.91797 5.24492 4.74614 3.41675 7.0013 3.41675ZM10.7302 5.83357C10.958 6.34246 11.0846 6.90648 11.0846 7.50008C11.0846 8.62766 10.6276 9.6485 9.88863 10.3874L9.06368 9.56246C9.59153 9.03466 9.91797 8.30549 9.91797 7.50008C9.91797 7.23875 9.88361 6.98546 9.81915 6.74443L10.7302 5.83357ZM9.47615 4.20025L10.3012 5.02521L8.12859 7.1985C8.15426 7.29469 8.16797 7.39578 8.16797 7.50008C8.16797 8.14443 7.64565 8.66675 7.0013 8.66675C6.35695 8.66675 5.83464 8.14443 5.83464 7.50008C5.83464 6.85573 6.35695 6.33341 7.0013 6.33341C7.1056 6.33341 7.20669 6.34712 7.30289 6.37279L9.47615 4.20025Z" fill="#71717A"/>
</svg>