<svg xmlns="http://www.w3.org/2000/svg" width="20" height="20" viewBox="0 0 20 20" fill="none">
<mask id="mask0_993_38701" style="mask-type:alpha" maskUnits="userSpaceOnUse" x="0" y="0" width="20" height="20">
<rect width="20" height="20" fill="#D9D9D9"/>
</mask>
<g mask="url(#mask0_993_38701)">
<path d="M7 17.5C5.73611 17.5 4.67014 17.066 3.80208 16.1979C2.93403 15.3299 2.5 14.2639 2.5 13C2.5 12.4722 2.59028 11.9583 2.77083 11.4583C2.95139 10.9583 3.20833 10.5069 3.54167 10.1042L6.5 6.54167L4.47917 2.5H15.5208L13.5 6.54167L16.4583 10.1042C16.7917 10.5069 17.0486 10.9583 17.2292 11.4583C17.4097 11.9583 17.5 12.4722 17.5 13C17.5 14.2639 17.0625 15.3299 16.1875 16.1979C15.3125 17.066 14.25 17.5 13 17.5H7ZM10 13.3333C9.54167 13.3333 9.14931 13.1701 8.82292 12.8438C8.49653 12.5174 8.33333 12.125 8.33333 11.6667C8.33333 11.2083 8.49653 10.816 8.82292 10.4896C9.14931 10.1632 9.54167 10 10 10C10.4583 10 10.8507 10.1632 11.1771 10.4896C11.5035 10.816 11.6667 11.2083 11.6667 11.6667C11.6667 12.125 11.5035 12.5174 11.1771 12.8438C10.8507 13.1701 10.4583 13.3333 10 13.3333ZM8.02083 5.83333H11.9792L12.8125 4.16667H7.1875L8.02083 5.83333ZM7 15.8333H13C13.7917 15.8333 14.4618 15.559 15.0104 15.0104C15.559 14.4618 15.8333 13.7917 15.8333 13C15.8333 12.6667 15.7743 12.3438 15.6562 12.0312C15.5382 11.7188 15.375 11.4375 15.1667 11.1875L12.1042 7.5H7.91667L4.83333 11.1667C4.625 11.4167 4.46181 11.7014 4.34375 12.0208C4.22569 12.3403 4.16667 12.6667 4.16667 13C4.16667 13.7917 4.44097 14.4618 4.98958 15.0104C5.53819 15.559 6.20833 15.8333 7 15.8333Z" fill="#1C1B1F"/>
</g>
</svg>