<svg xmlns="http://www.w3.org/2000/svg" width="16" height="16" viewBox="0 0 16 16" fill="none">
<path fill-rule="evenodd" clip-rule="evenodd" d="M2.66634 3.33334C2.66634 2.22877 3.56177 1.33334 4.66634 1.33334H11.333C12.4376 1.33334 13.333 2.22877 13.333 3.33334V13.3333L13.9997 13.3333C14.3679 13.3333 14.6663 13.6318 14.6663 14C14.6663 14.3682 14.3679 14.6667 13.9997 14.6667H1.99967C1.63148 14.6667 1.333 14.3682 1.33301 14C1.33301 13.6318 1.63149 13.3333 1.99968 13.3333L2.66634 13.3333V3.33334ZM3.99967 13.3333H5.99967V10.6667C5.99967 9.93028 6.59663 9.33333 7.33301 9.33333H8.66634C9.40272 9.33333 9.99967 9.93028 9.99967 10.6667V13.3333H11.9997V3.33334C11.9997 2.96515 11.7012 2.66668 11.333 2.66668H4.66634C4.29815 2.66668 3.99967 2.96515 3.99967 3.33334V13.3333ZM8.66634 13.3333V10.6667H7.33301V13.3333H8.66634ZM5.33301 4.66666C5.33301 4.29847 5.63148 3.99999 5.99967 3.99999H6.66634C7.03453 3.99999 7.33301 4.29847 7.33301 4.66666C7.33301 5.03485 7.03453 5.33333 6.66634 5.33333H5.99967C5.63148 5.33333 5.33301 5.03485 5.33301 4.66666ZM8.66634 4.66666C8.66634 4.29847 8.96482 3.99999 9.33301 3.99999H9.99967C10.3679 3.99999 10.6663 4.29847 10.6663 4.66666C10.6663 5.03485 10.3679 5.33333 9.99967 5.33333H9.33301C8.96482 5.33333 8.66634 5.03485 8.66634 4.66666ZM5.33301 7.33333C5.33301 6.96514 5.63148 6.66666 5.99967 6.66666H6.66634C7.03453 6.66666 7.33301 6.96514 7.33301 7.33333C7.33301 7.70152 7.03453 8 6.66634 8H5.99967C5.63148 8 5.33301 7.70152 5.33301 7.33333ZM8.66634 7.33333C8.66634 6.96514 8.96482 6.66666 9.33301 6.66666H9.99967C10.3679 6.66666 10.6663 6.96514 10.6663 7.33333C10.6663 7.70152 10.3679 8 9.99967 8H9.33301C8.96482 8 8.66634 7.70152 8.66634 7.33333Z" fill="#09090B"/>
</svg>