<svg xmlns="http://www.w3.org/2000/svg" width="16" height="16" viewBox="0 0 16 16" fill="none">
<path fill-rule="evenodd" clip-rule="evenodd" d="M8.00005 1.33325C8.25256 1.33325 8.4834 1.47592 8.59633 1.70178L14.5963 13.7018C14.7113 13.9318 14.6838 14.2075 14.5255 14.4102C14.3672 14.6129 14.1065 14.7065 13.8554 14.6507L8.00005 13.3495L2.14467 14.6507C1.89361 14.7065 1.63285 14.6129 1.47458 14.4102C1.3163 14.2075 1.28875 13.9318 1.40376 13.7018L7.40376 1.70178C7.51669 1.47592 7.74753 1.33325 8.00005 1.33325ZM8.66671 12.1318L12.7774 13.0453L8.00005 3.49063L3.22272 13.0453L7.33338 12.1318V7.33325C7.33338 6.96506 7.63186 6.66659 8.00005 6.66659C8.36824 6.66659 8.66671 6.96506 8.66671 7.33325V12.1318Z" fill="#111827"/>
</svg>