<svg xmlns="http://www.w3.org/2000/svg" width="16" height="16" viewBox="0 0 16 16" fill="none">
<path fill-rule="evenodd" clip-rule="evenodd" d="M13.0404 2.95948C12.6499 2.56895 12.0168 2.56895 11.6262 2.95948L11.0976 3.48807L12.5118 4.90229L13.0404 4.37369C13.431 3.98317 13.431 3.35 13.0404 2.95948ZM13.9833 5.3165C14.8945 4.40528 14.8945 2.92789 13.9833 2.01667C13.072 1.10545 11.5946 1.10545 10.6834 2.01667L9.68355 3.01654L1.52864 11.1715C1.40361 11.2965 1.33337 11.466 1.33337 11.6429V14.0236C1.33337 14.3918 1.63185 14.6902 2.00004 14.6902H4.33337C4.51019 14.6902 4.67975 14.62 4.80478 14.495L13.9833 5.3165ZM11.569 5.8451L10.1548 4.43088L2.66671 11.919V13.3569H4.05723L11.569 5.8451Z" fill="#111827"/>
</svg>