<svg xmlns="http://www.w3.org/2000/svg" width="16" height="16" viewBox="0 0 16 16" fill="none">
<path fill-rule="evenodd" clip-rule="evenodd" d="M8.66634 5.33333C8.29815 5.33333 7.99967 5.03486 7.99967 4.66667C7.99967 4.29848 8.29815 4 8.66634 4H13.9997C14.3679 4 14.6663 4.29848 14.6663 4.66667V10C14.6663 10.3682 14.3679 10.6667 13.9997 10.6667C13.6315 10.6667 13.333 10.3682 13.333 10V6.27614L9.13775 10.4714C8.8774 10.7318 8.45529 10.7318 8.19494 10.4714L5.99967 8.27614L2.47108 11.8047C2.21073 12.0651 1.78862 12.0651 1.52827 11.8047C1.26792 11.5444 1.26792 11.1223 1.52827 10.8619L5.52827 6.86193C5.78862 6.60158 6.21073 6.60158 6.47108 6.86193L8.66634 9.05719L12.3902 5.33333H8.66634Z" fill="#09090B"/>
</svg>