<svg xmlns="http://www.w3.org/2000/svg" width="20" height="21" viewBox="0 0 20 21" fill="none">
<path fill-rule="evenodd" clip-rule="evenodd" d="M9.99935 3.83329C6.31745 3.83329 3.33268 6.81806 3.33268 10.5C3.33268 11.8997 3.76406 13.1987 4.50112 14.2712C6.16111 13.457 8.02785 13 9.99935 13C11.9709 13 13.8376 13.457 15.4976 14.2712C16.2346 13.1987 16.666 11.8997 16.666 10.5C16.666 6.81806 13.6812 3.83329 9.99935 3.83329ZM16.3779 15.863C17.5978 14.4136 18.3327 12.5426 18.3327 10.5C18.3327 5.89759 14.6017 2.16663 9.99935 2.16663C5.39698 2.16663 1.66602 5.89759 1.66602 10.5C1.66602 12.5426 2.40095 14.4136 3.62083 15.863C3.62742 15.8711 3.63415 15.8791 3.641 15.8869C5.16959 17.6893 7.45088 18.8333 9.99935 18.8333C12.5478 18.8333 14.8291 17.6893 16.3577 15.8869C16.3645 15.8791 16.3713 15.8711 16.3779 15.863ZM14.3315 15.5673C13.0055 14.9881 11.5408 14.6666 9.99935 14.6666C8.45793 14.6666 6.99318 14.9881 5.66715 15.5673C6.83235 16.5644 8.34552 17.1666 9.99935 17.1666C11.6532 17.1666 13.1663 16.5644 14.3315 15.5673ZM9.99935 7.16663C9.07887 7.16663 8.33268 7.91282 8.33268 8.83329C8.33268 9.75377 9.07887 10.5 9.99935 10.5C10.9198 10.5 11.666 9.75377 11.666 8.83329C11.666 7.91282 10.9198 7.16663 9.99935 7.16663ZM6.66602 8.83329C6.66602 6.99234 8.1584 5.49996 9.99935 5.49996C11.8403 5.49996 13.3327 6.99234 13.3327 8.83329C13.3327 10.6742 11.8403 12.1666 9.99935 12.1666C8.1584 12.1666 6.66602 10.6742 6.66602 8.83329Z" fill="#09090B"/>
</svg>