<svg width="16" height="16" viewBox="0 0 16 16" fill="none" xmlns="http://www.w3.org/2000/svg">
<path d="M4.66667 3.33317C4.66667 1.86041 5.86057 0.666504 7.33333 0.666504C8.80607 0.666504 10 1.86041 10 3.33317H12C12.3682 3.33317 12.6667 3.63165 12.6667 3.99984V5.99984C14.1394 5.99984 15.3333 7.19377 15.3333 8.6665C15.3333 10.1392 14.1394 11.3332 12.6667 11.3332V13.3332C12.6667 13.7014 12.3682 13.9998 12 13.9998H2.66667C2.29848 13.9998 2 13.7014 2 13.3332V3.99984C2 3.63165 2.29848 3.33317 2.66667 3.33317H4.66667ZM7.33333 1.99984C6.59695 1.99984 6 2.59679 6 3.33317C6 3.4902 6.02687 3.63952 6.0757 3.77767C6.14781 3.98172 6.11641 4.20807 5.99145 4.38476C5.86649 4.56146 5.66355 4.6665 5.44714 4.6665H3.33333V12.6665H11.3333V10.5527C11.3333 10.3363 11.4384 10.1334 11.6151 10.0084C11.7918 9.88344 12.0181 9.85204 12.2221 9.92417C12.3603 9.97297 12.5097 9.99984 12.6667 9.99984C13.4031 9.99984 14 9.4029 14 8.6665C14 7.9301 13.4031 7.33317 12.6667 7.33317C12.5097 7.33317 12.3603 7.36004 12.2221 7.40884C12.0181 7.48097 11.7918 7.44957 11.6151 7.32464C11.4384 7.19964 11.3333 6.9967 11.3333 6.7803V4.6665H9.21953C9.00313 4.6665 8.8002 4.56146 8.6752 4.38476C8.55027 4.20807 8.51887 3.98172 8.591 3.77767C8.6398 3.63952 8.66667 3.4902 8.66667 3.33317C8.66667 2.59679 8.06973 1.99984 7.33333 1.99984Z" fill="#18181B"/>
</svg>
