<svg width="20" height="21" viewBox="0 0 20 21" fill="none" xmlns="http://www.w3.org/2000/svg">
<path d="M4.8017 14.6667H16.666V4.66667H3.33268V15.8209L4.8017 14.6667ZM5.37814 16.3333L1.66602 19.25V3.83333C1.66602 3.3731 2.03912 3 2.49935 3H17.4993C17.9596 3 18.3327 3.3731 18.3327 3.83333V15.5C18.3327 15.9602 17.9596 16.3333 17.4993 16.3333H5.37814ZM9.16602 12.1667H10.8327V13.8333H9.16602V12.1667ZM7.13877 7.84455C7.40466 6.50766 8.58435 5.5 9.99935 5.5C11.6102 5.5 12.916 6.80583 12.916 8.41667C12.916 10.0275 11.6102 11.3333 9.99935 11.3333H9.16602V9.66667H9.99935C10.6897 9.66667 11.2493 9.107 11.2493 8.41667C11.2493 7.72631 10.6897 7.16667 9.99935 7.16667C9.39293 7.16667 8.88735 7.59852 8.77335 8.17147L7.13877 7.84455Z" fill="#09090B"/>
</svg>