<svg xmlns="http://www.w3.org/2000/svg" width="158" height="42" viewBox="0 0 158 42" fill="none">
<path fill-rule="evenodd" clip-rule="evenodd" d="M9.32883 7.20727C9.19757 7.07602 9.01956 7.00228 8.83393 7.00228H0.699886C0.31335 7.00228 0 7.31563 0 7.70216V15.8615C0 16.0471 0.0737376 16.2252 0.204992 16.3564L4.35369 20.5051C4.62701 20.7784 4.62701 21.2216 4.35369 21.4949L0.204992 25.6436C0.0737378 25.7748 0 25.9529 0 26.1385V34.2978C0 34.6844 0.31335 34.9977 0.699886 34.9977H8.87079C9.05641 34.9977 9.23443 34.924 9.36568 34.7927L13.4775 30.6809C13.7508 30.4076 14.194 30.4076 14.4673 30.6809L18.5791 34.7927C18.7104 34.924 18.8884 34.9977 19.074 34.9977H27.2956C27.6821 34.9977 27.9954 34.6844 27.9954 34.2978V26.1891C27.9954 26.0035 27.9217 25.8255 27.7905 25.6942L23.5911 21.4949C23.3178 21.2216 23.3178 20.7784 23.5911 20.5051L27.7905 16.3058C27.9217 16.1745 27.9954 15.9965 27.9954 15.8109V7.70216C27.9954 7.31563 27.6821 7.00228 27.2956 7.00228H19.1109C18.9253 7.00228 18.7472 7.07602 18.616 7.20727L14.4673 11.356C14.194 11.6293 13.7508 11.6293 13.4775 11.356L9.32883 7.20727ZM2.09966 9.80182C2.09966 9.41529 2.41301 9.10194 2.79954 9.10194H7.52165C7.70727 9.10194 7.88529 9.17567 8.01654 9.30693L11.7719 13.0623C12.0452 13.3356 12.0452 13.7788 11.7719 14.0521L7.04981 18.7742C6.77649 19.0475 6.33335 19.0475 6.06002 18.7742L2.30465 15.0188C2.1734 14.8876 2.09966 14.7095 2.09966 14.5239V9.80182ZM8.2602 20.9744C8.26002 20.9742 8.26002 20.9739 8.2602 20.9737L13.9714 15.2625C13.9716 15.2623 13.9719 15.2623 13.9721 15.2625C13.9723 15.2627 13.9726 15.2627 13.9727 15.2625L19.9283 9.30693C20.0595 9.17567 20.2376 9.10194 20.4232 9.10194H25.1959C25.5824 9.10194 25.8958 9.41529 25.8958 9.80182V14.5608C25.8958 14.7464 25.8221 14.9244 25.6908 15.0557L20.2667 20.4798C19.9934 20.7531 19.9934 21.1963 20.2667 21.4696L25.6908 26.8937C25.8221 27.025 25.8958 27.203 25.8958 27.3886V32.1982C25.8958 32.5847 25.5824 32.8981 25.1959 32.8981H20.3863C20.2007 32.8981 20.0227 32.8243 19.8914 32.6931L14.4673 27.269C14.194 26.9956 13.7508 26.9956 13.4775 27.269L8.0534 32.6931C7.92214 32.8243 7.74412 32.8981 7.5585 32.8981H2.79954C2.41301 32.8981 2.09966 32.5847 2.09966 32.1982V27.4255C2.09966 27.2398 2.1734 27.0618 2.30465 26.9306L8.2602 20.975C8.26038 20.9748 8.26038 20.9745 8.2602 20.9744Z" fill="#14B8A6"/>
<path d="M43.5311 35H40.0115C35.6707 35 32.9724 33.0447 32.9724 27.9609V7H39.3858V14.0391H43.5311V19.7877H39.3858V26.8659C39.3858 28.6257 40.207 29.2514 41.7322 29.2514H43.5311V35Z" fill="#14B8A6"/>
<path d="M57.7923 19.8268H55.5241C53.9599 19.8268 53.1778 20.4134 53.1778 22.1732V35H46.7644V21.0782C46.7644 15.9944 49.4236 14.0391 53.8035 14.0391H57.7923V19.8268Z" fill="#14B8A6"/>
<path d="M79.9985 25.6927C79.9985 32.4972 76.2443 34.9952 70.1437 34.9952C63.613 34.9952 60.4454 31.9497 60.4454 25.6927V14.0391H66.8588V25.6927C66.8588 28.3129 67.6409 29.6816 70.1828 29.6816C72.6074 29.6816 73.5851 28.3911 73.5851 25.6927V14.0391H79.9985V25.6927Z" fill="#14B8A6"/>
<path d="M98.6888 35H93.6832C86.9569 35 83.0463 31.5196 83.0463 24.5196C83.0463 17.324 87.3871 14.0391 93.6832 14.0391H98.6888V19.8268H93.6441C91.0631 19.8268 89.4206 21.1173 89.4206 24.5196C89.4206 27.8045 91.1022 29.2514 93.6441 29.2514H98.6888V35Z" fill="#14B8A6"/>
<path d="M121.412 14.0391L115.741 21.9385C119.3 22.486 120.59 24.7542 120.59 28.352V35H114.177V29.2514C114.177 27.6872 113.434 26.9832 111.87 26.9832H108.78V35H102.367V7H108.78V22.9162L114.099 14.0391H121.412Z" fill="#14B8A6"/>
<path d="M143.415 24.0894C143.415 24.9888 143.298 26.3966 143.298 26.3966H130.158C130.393 28.2346 131.801 29.2514 133.795 29.2514H140.912V35H133.834C127.264 35 123.393 31.1285 123.393 24.1285C123.393 16.9721 127.655 13.5698 133.639 13.5698C140.013 13.5698 143.454 17.324 143.415 24.0894ZM136.924 22.4078C136.924 20.6089 135.868 19.3575 133.56 19.3575C131.449 19.3575 130.197 20.4134 129.924 22.4078H136.924Z" fill="#14B8A6"/>
<path d="M157.284 19.8268H155.016C153.451 19.8268 152.669 20.4134 152.669 22.1732V35H146.256V21.0782C146.256 15.9944 148.915 14.0391 153.295 14.0391H157.284V19.8268Z" fill="#14B8A6"/>
</svg>