<svg xmlns="http://www.w3.org/2000/svg" width="16" height="16" viewBox="0 0 16 16" fill="none">
<mask id="mask0_914_22096" style="mask-type:alpha" maskUnits="userSpaceOnUse" x="0" y="0" width="16" height="16">
<rect width="16" height="16" fill="#D9D9D9"/>
</mask>
<g mask="url(#mask0_914_22096)">
<path d="M12.9987 14.3335L12.0654 13.4002L12.7987 12.6668H7.86537C7.73203 13.0668 7.49314 13.3891 7.1487 13.6335C6.80425 13.8779 6.42092 14.0002 5.9987 14.0002C5.57648 14.0002 5.19592 13.8779 4.85703 13.6335C4.51814 13.3891 4.27648 13.0668 4.13203 12.6668H3.33203C2.77648 12.6668 2.30425 12.4724 1.91536 12.0835C1.52648 11.6946 1.33203 11.2224 1.33203 10.6668V6.66683H5.33203V4.66683H1.33203V3.3335H9.9987C10.3654 3.3335 10.6793 3.46405 10.9404 3.72516C11.2015 3.98627 11.332 4.30016 11.332 4.66683V11.3335H12.7654L12.0654 10.6335L12.9987 9.66683L15.332 12.0002L12.9987 14.3335ZM6.66536 6.66683H9.9987V4.66683H6.66536V6.66683ZM5.9987 12.6668C6.18759 12.6668 6.34592 12.6029 6.4737 12.4752C6.60148 12.3474 6.66536 12.1891 6.66536 12.0002C6.66536 11.8113 6.60148 11.6529 6.4737 11.5252C6.34592 11.3974 6.18759 11.3335 5.9987 11.3335C5.80981 11.3335 5.65148 11.3974 5.5237 11.5252C5.39592 11.6529 5.33203 11.8113 5.33203 12.0002C5.33203 12.1891 5.39592 12.3474 5.5237 12.4752C5.65148 12.6029 5.80981 12.6668 5.9987 12.6668ZM4.13203 11.3335C4.27648 10.9335 4.51814 10.6113 4.85703 10.3668C5.19592 10.1224 5.57648 10.0002 5.9987 10.0002C6.42092 10.0002 6.80425 10.1224 7.1487 10.3668C7.49314 10.6113 7.73203 10.9335 7.86537 11.3335H9.9987V8.00016H2.66536V10.6668C2.66536 10.8557 2.72925 11.0141 2.85703 11.1418C2.98481 11.2696 3.14314 11.3335 3.33203 11.3335H4.13203Z" fill="#09090B"/>
</g>
</svg>