<svg xmlns="http://www.w3.org/2000/svg" width="16" height="16" viewBox="0 0 16 16" fill="none">
<path d="M7.97917 15.1666C4.0325 15.1666 0.8125 11.9533 0.8125 7.99992C0.8125 4.04659 4.0325 0.833252 7.97917 0.833252C11.9258 0.833252 15.1458 4.04659 15.1458 7.99992C15.1458 11.9533 11.9325 15.1666 7.97917 15.1666ZM7.97917 1.83325C4.57917 1.83325 1.8125 4.59992 1.8125 7.99992C1.8125 11.3999 4.57917 14.1666 7.97917 14.1666C11.3792 14.1666 14.1458 11.3999 14.1458 7.99992C14.1458 4.59992 11.3792 1.83325 7.97917 1.83325Z" fill="#18181B"/>
<path d="M8.84635 11.3199H7.15302C5.46635 11.3199 4.67969 10.5333 4.67969 8.8466V7.15326C4.67969 5.4666 5.46635 4.67993 7.15302 4.67993H8.84635C10.533 4.67993 11.3197 5.4666 11.3197 7.15326V8.8466C11.3197 10.5333 10.533 11.3199 8.84635 11.3199ZM7.15302 5.67993C6.02635 5.67993 5.67969 6.0266 5.67969 7.15326V8.8466C5.67969 9.97327 6.02635 10.3199 7.15302 10.3199H8.84635C9.97302 10.3199 10.3197 9.97327 10.3197 8.8466V7.15326C10.3197 6.0266 9.97302 5.67993 8.84635 5.67993H7.15302Z" fill="#18181B"/>
</svg>