<svg xmlns="http://www.w3.org/2000/svg" width="21" height="20" viewBox="0 0 21 20" fill="none">
<mask id="mask0_993_38747" style="mask-type:alpha" maskUnits="userSpaceOnUse" x="0" y="0" width="21" height="20">
<rect x="0.333008" width="20" height="20" fill="#D9D9D9"/>
</mask>
<g mask="url(#mask0_993_38747)">
<path d="M13.6667 9.16663C13.9028 9.16663 14.1007 9.08677 14.2604 8.92704C14.4201 8.76732 14.5 8.5694 14.5 8.33329C14.5 8.09718 14.4201 7.89926 14.2604 7.73954C14.1007 7.57982 13.9028 7.49996 13.6667 7.49996C13.4306 7.49996 13.2326 7.57982 13.0729 7.73954C12.9132 7.89926 12.8333 8.09718 12.8333 8.33329C12.8333 8.5694 12.9132 8.76732 13.0729 8.92704C13.2326 9.08677 13.4306 9.16663 13.6667 9.16663ZM7 7.49996H11.1667V5.83329H7V7.49996ZM4.08333 17.5C3.61111 15.9166 3.14583 14.3368 2.6875 12.7604C2.22917 11.184 2 9.5694 2 7.91663C2 6.63885 2.44444 5.55552 3.33333 4.66663C4.22222 3.77774 5.30556 3.33329 6.58333 3.33329H10.75C11.1528 2.80551 11.6424 2.39579 12.2188 2.10413C12.7951 1.81246 13.4167 1.66663 14.0833 1.66663C14.4306 1.66663 14.7257 1.78815 14.9688 2.03121C15.2118 2.27426 15.3333 2.5694 15.3333 2.91663C15.3333 2.99996 15.3229 3.08329 15.3021 3.16663C15.2812 3.24996 15.2569 3.32635 15.2292 3.39579C15.1736 3.54857 15.1215 3.70482 15.0729 3.86454C15.0243 4.02426 14.9861 4.18746 14.9583 4.35413L16.8542 6.24996H18.6667V12.0625L16.3125 12.8333L14.9167 17.5H10.3333V15.8333H8.66667V17.5H4.08333ZM5.33333 15.8333H7V14.1666H12V15.8333H13.6667L14.9583 11.5416L17 10.8541V7.91663H16.1667L13.25 4.99996C13.25 4.72218 13.2674 4.45482 13.3021 4.19788C13.3368 3.94093 13.3889 3.68052 13.4583 3.41663C13.0556 3.52774 12.7014 3.71871 12.3958 3.98954C12.0903 4.26038 11.8681 4.59718 11.7292 4.99996H6.58333C5.77778 4.99996 5.09028 5.28468 4.52083 5.85413C3.95139 6.42357 3.66667 7.11107 3.66667 7.91663C3.66667 9.27774 3.85417 10.6076 4.22917 11.9062C4.60417 13.2048 4.97222 14.5138 5.33333 15.8333Z" fill="#1C1B1F"/>
</g>
</svg>