<svg xmlns="http://www.w3.org/2000/svg" width="20" height="21" viewBox="0 0 20 21" fill="none">
<path d="M10.0007 1.33337L17.9173 5.91671V15.0834L10.0007 19.6667L2.08398 15.0834V5.91671L10.0007 1.33337ZM10.0007 3.25921L3.75065 6.87763V14.1225L10.0007 17.7409L16.2507 14.1225V6.87763L10.0007 3.25921ZM10.0007 13.8334C8.1597 13.8334 6.66732 12.341 6.66732 10.5C6.66732 8.65909 8.1597 7.16671 10.0007 7.16671C11.8416 7.16671 13.334 8.65909 13.334 10.5C13.334 12.341 11.8416 13.8334 10.0007 13.8334ZM10.0007 12.1667C10.9212 12.1667 11.6673 11.4205 11.6673 10.5C11.6673 9.57954 10.9212 8.83337 10.0007 8.83337C9.08015 8.83337 8.33398 9.57954 8.33398 10.5C8.33398 11.4205 9.08015 12.1667 10.0007 12.1667Z" fill="#09090B"/>
</svg>