<svg xmlns="http://www.w3.org/2000/svg" width="16" height="16" viewBox="0 0 16 16" fill="none">
<path fill-rule="evenodd" clip-rule="evenodd" d="M7.99935 2.66683C6.89478 2.66683 5.99935 3.56226 5.99935 4.66683C5.99935 5.7714 6.89478 6.66683 7.99935 6.66683C9.10392 6.66683 9.99935 5.7714 9.99935 4.66683C9.99935 3.56226 9.10392 2.66683 7.99935 2.66683ZM4.66602 4.66683C4.66602 2.82588 6.1584 1.3335 7.99935 1.3335C9.8403 1.3335 11.3327 2.82588 11.3327 4.66683C11.3327 6.50778 9.8403 8.00016 7.99935 8.00016C6.1584 8.00016 4.66602 6.50778 4.66602 4.66683ZM4.05465 13.3335H11.944C11.6267 11.4417 9.98135 10.0002 7.99935 10.0002C6.01735 10.0002 4.37204 11.4417 4.05465 13.3335ZM2.66602 14.0002C2.66602 11.0546 5.05383 8.66683 7.99935 8.66683C10.9449 8.66683 13.3327 11.0546 13.3327 14.0002C13.3327 14.3684 13.0342 14.6668 12.666 14.6668H3.33268C2.96449 14.6668 2.66602 14.3684 2.66602 14.0002Z" fill="#09090B"/>
</svg>