<svg xmlns="http://www.w3.org/2000/svg" width="17" height="17" viewBox="0 0 17 17" fill="none">
<path fill-rule="evenodd" clip-rule="evenodd" d="M7.16732 3.16659C4.95818 3.16659 3.16732 4.95745 3.16732 7.16659C3.16732 9.37572 4.95818 11.1666 7.16732 11.1666C9.37646 11.1666 11.1673 9.37572 11.1673 7.16659C11.1673 4.95745 9.37646 3.16659 7.16732 3.16659ZM1.83398 7.16659C1.83398 4.22107 4.2218 1.83325 7.16732 1.83325C10.1128 1.83325 12.5007 4.22107 12.5007 7.16659C12.5007 8.39906 12.0826 9.53389 11.3806 10.437L14.9721 14.0285C15.2324 14.2889 15.2324 14.711 14.9721 14.9713C14.7117 15.2317 14.2896 15.2317 14.0292 14.9713L10.4377 11.3798C9.53462 12.0819 8.39979 12.4999 7.16732 12.4999C4.2218 12.4999 1.83398 10.1121 1.83398 7.16659Z" fill="#18181B"/>
</svg>