<svg xmlns="http://www.w3.org/2000/svg" width="17" height="16" viewBox="0 0 17 16" fill="none">
<path d="M3.02205 1.88399L8.5 0.666672L13.9779 1.88399C14.283 1.95178 14.5 2.22232 14.5 2.53479V9.19261C14.5 10.53 13.8316 11.7789 12.7188 12.5208L8.5 15.3333L4.2812 12.5208C3.16841 11.7789 2.5 10.53 2.5 9.19261V2.53479C2.5 2.22232 2.71702 1.95178 3.02205 1.88399ZM3.83333 3.06957V9.19261C3.83333 10.0842 4.27893 10.9168 5.0208 11.4114L8.5 13.7309L11.9792 11.4114C12.7211 10.9168 13.1667 10.0842 13.1667 9.19261V3.06957L8.5 2.03253L3.83333 3.06957ZM7.83333 6.66667V4.66667H9.16667V6.66667H11.1667V8H9.16667V10H7.83333V8H5.83333V6.66667H7.83333Z" fill="#042F2E"/>
</svg>