<svg xmlns="http://www.w3.org/2000/svg" width="20" height="20" viewBox="0 0 20 20" fill="none">
<path fill-rule="evenodd" clip-rule="evenodd" d="M17.2559 5.2444C17.5814 5.56984 17.5814 6.09748 17.2559 6.42291L13.9226 9.75625C13.5972 10.0817 13.0695 10.0817 12.7441 9.75625C12.4186 9.43081 12.4186 8.90317 12.7441 8.57774L14.6548 6.66699L6.66667 6.66699C6.20643 6.66699 5.83333 6.2939 5.83333 5.83366C5.83333 5.37342 6.20643 5.00033 6.66667 5.00033L14.6548 5.00033L12.7441 3.08958C12.4186 2.76414 12.4186 2.23651 12.7441 1.91107C13.0695 1.58563 13.5972 1.58563 13.9226 1.91107L17.2559 5.2444ZM5.34518 13.3337L13.3333 13.3337C13.7936 13.3337 14.1667 13.7068 14.1667 14.167C14.1667 14.6272 13.7936 15.0003 13.3333 15.0003L5.34518 15.0003L7.25592 16.9111C7.58136 17.2365 7.58136 17.7641 7.25592 18.0896C6.93048 18.415 6.40285 18.415 6.07741 18.0896L2.74408 14.7562C2.41864 14.4308 2.41864 13.9032 2.74408 13.5777L6.07741 10.2444C6.40285 9.91897 6.93049 9.91897 7.25592 10.2444C7.58136 10.5698 7.58136 11.0975 7.25592 11.4229L5.34518 13.3337Z" fill="#111827"/>
</svg>