<svg xmlns="http://www.w3.org/2000/svg" width="16" height="16" viewBox="0 0 16 16" fill="none">
<path fill-rule="evenodd" clip-rule="evenodd" d="M1.33594 5.3335C1.33594 4.22893 2.23137 3.3335 3.33594 3.3335H12.6693C13.7738 3.3335 14.6693 4.22893 14.6693 5.3335V10.6668C14.6693 11.7714 13.7738 12.6668 12.6693 12.6668H3.33594C2.23137 12.6668 1.33594 11.7714 1.33594 10.6668V5.3335ZM3.33594 4.66683C2.96775 4.66683 2.66927 4.96531 2.66927 5.3335V6.00016H13.3359V5.3335C13.3359 4.96531 13.0375 4.66683 12.6693 4.66683H3.33594ZM13.3359 7.3335H8.66927V8.66683H13.3359V7.3335ZM13.3359 10.0002H8.66927V11.3335H12.6693C13.0375 11.3335 13.3359 11.035 13.3359 10.6668V10.0002ZM7.33594 11.3335V10.0002H2.66927V10.6668C2.66927 11.035 2.96775 11.3335 3.33594 11.3335H7.33594ZM2.66927 8.66683H7.33594V7.3335H2.66927V8.66683Z" fill="#111827"/>
</svg>