<svg xmlns="http://www.w3.org/2000/svg" width="16" height="16" viewBox="0 0 16 16" fill="none">
<path d="M3.55295 2.18097C4.37501 1.88872 5.3282 2.07158 5.98618 2.72956C6.64435 3.38772 6.82713 4.34126 6.53452 5.16348L13.7643 12.3934L12.3501 13.8076L5.11957 6.57798C4.29751 6.87022 3.34433 6.68736 2.68635 6.02939C2.02818 5.37122 1.8454 4.41768 2.13801 3.59546L3.62915 5.08658C4.01968 5.4771 4.65285 5.4771 5.04337 5.08658C5.43389 4.69606 5.43389 4.06289 5.04337 3.67237L3.55295 2.18097ZM10.4645 3.43666L12.5859 2.25815L13.5287 3.20096L12.3501 5.32228L11.1716 5.55798L9.7574 6.97222L8.8146 6.02939L10.2288 4.61518L10.4645 3.43666ZM5.75048 8.62209L7.16467 10.0364L3.86486 13.3362C3.47433 13.7267 2.84117 13.7267 2.45065 13.3362C2.08309 12.9686 2.06147 12.3861 2.38578 11.9933L2.45065 11.922L5.75048 8.62209Z" fill="#042F2E"/>
</svg>