<svg xmlns="http://www.w3.org/2000/svg" width="18" height="18" viewBox="0 0 18 18" fill="none">
<path d="M12.75 4.5H16.5V6H15V15.75C15 16.1642 14.6642 16.5 14.25 16.5H3.75C3.33579 16.5 3 16.1642 3 15.75V6H1.5V4.5H5.25V2.25C5.25 1.83579 5.58579 1.5 6 1.5H12C12.4142 1.5 12.75 1.83579 12.75 2.25V4.5ZM13.5 6H4.5V15H13.5V6ZM10.0606 10.4998L11.3865 11.8256L10.3259 12.8863L9 11.5604L7.67415 12.8863L6.61351 11.8256L7.93935 10.4998L6.61351 9.174L7.67415 8.11335L9 9.43913L10.3259 8.11335L11.3865 9.174L10.0606 10.4998ZM6.75 3V4.5H11.25V3H6.75Z" fill="#1A1D1F"/>
</svg>