<svg xmlns="http://www.w3.org/2000/svg" width="16" height="16" viewBox="0 0 16 16" fill="none">
<path d="M5.97767 12.0002C5.81593 13.1309 4.84346 14.0002 3.66797 14.0002C2.49248 14.0002 1.52001 13.1309 1.35826 12.0002H0.667969V4.00016C0.667969 3.63198 0.966449 3.3335 1.33464 3.3335H10.668C11.0362 3.3335 11.3346 3.63198 11.3346 4.00016V5.3335H13.3346L15.3346 8.0373V12.0002H13.9777C13.8159 13.1309 12.8434 14.0002 11.668 14.0002C10.4925 14.0002 9.52003 13.1309 9.35824 12.0002H5.97767ZM10.0013 4.66683H2.0013V10.0338C2.42481 9.60163 3.01508 9.3335 3.66797 9.3335C4.59877 9.3335 5.40227 9.8785 5.77676 10.6668H9.55917C9.67097 10.4315 9.82103 10.2178 10.0013 10.0338V4.66683ZM11.3346 8.66683H14.0013V8.47683L12.6624 6.66683H11.3346V8.66683ZM11.668 12.6668C12.1034 12.6668 12.4738 12.3886 12.611 12.0002C12.6479 11.8959 12.668 11.7837 12.668 11.6668C12.668 11.1146 12.2202 10.6668 11.668 10.6668C11.1157 10.6668 10.668 11.1146 10.668 11.6668C10.668 11.7837 10.688 11.8959 10.7249 12.0002C10.8622 12.3886 11.2326 12.6668 11.668 12.6668ZM4.66797 11.6668C4.66797 11.1146 4.22026 10.6668 3.66797 10.6668C3.11568 10.6668 2.66797 11.1146 2.66797 11.6668C2.66797 11.7837 2.68802 11.8959 2.72487 12.0002C2.86215 12.3886 3.23256 12.6668 3.66797 12.6668C4.10338 12.6668 4.47379 12.3886 4.61107 12.0002C4.64792 11.8959 4.66797 11.7837 4.66797 11.6668Z" fill="#09090B"/>
</svg>