<svg xmlns="http://www.w3.org/2000/svg" width="16" height="16" viewBox="0 0 16 16" fill="none">
<path fill-rule="evenodd" clip-rule="evenodd" d="M5.33333 2.66659C5.33333 1.93021 5.93029 1.33325 6.66667 1.33325H9.33333C10.0697 1.33325 10.6667 1.93021 10.6667 2.66659V3.99992H12.6598C12.6639 3.99988 12.668 3.99988 12.6722 3.99992H13.3333C13.7015 3.99992 14 4.2984 14 4.66659C14 5.03478 13.7015 5.33325 13.3333 5.33325H13.2874L12.7534 12.8091C12.6787 13.8557 11.8078 14.6666 10.7585 14.6666H5.24149C4.19221 14.6666 3.32133 13.8557 3.24657 12.8091L2.71259 5.33325H2.66667C2.29848 5.33325 2 5.03478 2 4.66659C2 4.2984 2.29848 3.99992 2.66667 3.99992H3.32783C3.33197 3.99988 3.33609 3.99988 3.34021 3.99992H5.33333V2.66659ZM4.04932 5.33325L4.57652 12.7141C4.60144 13.063 4.89173 13.3333 5.24149 13.3333H10.7585C11.1083 13.3333 11.3986 13.063 11.4235 12.7141L11.9507 5.33325H4.04932ZM9.33333 3.99992H6.66667V2.66659H9.33333V3.99992ZM6.66667 6.66659C7.03486 6.66659 7.33333 6.96506 7.33333 7.33325V11.3333C7.33333 11.7014 7.03486 11.9999 6.66667 11.9999C6.29848 11.9999 6 11.7014 6 11.3333V7.33325C6 6.96506 6.29848 6.66659 6.66667 6.66659ZM9.33333 6.66659C9.70152 6.66659 10 6.96506 10 7.33325V11.3333C10 11.7014 9.70152 11.9999 9.33333 11.9999C8.96514 11.9999 8.66667 11.7014 8.66667 11.3333V7.33325C8.66667 6.96506 8.96514 6.66659 9.33333 6.66659Z" fill="#111827"/>
</svg>