<svg xmlns="http://www.w3.org/2000/svg" width="21" height="20" viewBox="0 0 21 20" fill="none">
<mask id="mask0_993_38724" style="mask-type:alpha" maskUnits="userSpaceOnUse" x="0" y="0" width="21" height="20">
<rect x="0.666992" width="20" height="20" fill="#D9D9D9"/>
</mask>
<g mask="url(#mask0_993_38724)">
<path d="M3.16667 15C2.70833 15 2.31597 14.8368 1.98958 14.5104C1.66319 14.184 1.5 13.7917 1.5 13.3333C1.5 12.875 1.66319 12.4826 1.98958 12.1563C2.31597 11.8299 2.70833 11.6667 3.16667 11.6667H3.38542C3.44792 11.6667 3.51389 11.6806 3.58333 11.7083L7.375 7.91667C7.34722 7.84722 7.33333 7.78125 7.33333 7.71875V7.5C7.33333 7.04167 7.49653 6.64931 7.82292 6.32292C8.14931 5.99653 8.54167 5.83333 9 5.83333C9.45833 5.83333 9.8507 5.99653 10.1771 6.32292C10.5035 6.64931 10.6667 7.04167 10.6667 7.5C10.6667 7.52778 10.6528 7.66667 10.625 7.91667L12.75 10.0417C12.8194 10.0139 12.8854 10 12.9479 10H13.3854C13.4479 10 13.5139 10.0139 13.5833 10.0417L16.5417 7.08333C16.5139 7.01389 16.5 6.94792 16.5 6.88542V6.66667C16.5 6.20833 16.6632 5.81597 16.9896 5.48958C17.316 5.16319 17.7083 5 18.1667 5C18.625 5 19.0174 5.16319 19.3438 5.48958C19.6701 5.81597 19.8333 6.20833 19.8333 6.66667C19.8333 7.125 19.6701 7.51736 19.3438 7.84375C19.0174 8.17014 18.625 8.33333 18.1667 8.33333H17.9479C17.8854 8.33333 17.8194 8.31944 17.75 8.29167L14.7917 11.25C14.8194 11.3194 14.8333 11.3854 14.8333 11.4479V11.6667C14.8333 12.125 14.6701 12.5174 14.3438 12.8438C14.0174 13.1701 13.625 13.3333 13.1667 13.3333C12.7083 13.3333 12.316 13.1701 11.9896 12.8438C11.6632 12.5174 11.5 12.125 11.5 11.6667V11.4479C11.5 11.3854 11.5139 11.3194 11.5417 11.25L9.41667 9.125C9.34722 9.15278 9.28125 9.16667 9.21875 9.16667H9C8.97222 9.16667 8.83333 9.15278 8.58333 9.125L4.79167 12.9167C4.81944 12.9861 4.83333 13.0521 4.83333 13.1146V13.3333C4.83333 13.7917 4.67014 14.184 4.34375 14.5104C4.01736 14.8368 3.625 15 3.16667 15Z" fill="#1C1B1F"/>
</g>
</svg>