<svg xmlns="http://www.w3.org/2000/svg" width="20" height="20" viewBox="0 0 20 20" fill="none">
<path d="M13.0001 6C13.0001 7.65685 11.6569 9 10.0001 9C8.34321 9 7.00006 7.65685 7.00006 6C7.00006 4.34315 8.34321 3 10.0001 3C11.6569 3 13.0001 4.34315 13.0001 6Z" fill="#042F2E"/>
<path d="M18.0001 8C18.0001 9.10457 17.1046 10 16.0001 10C14.8955 10 14.0001 9.10457 14.0001 8C14.0001 6.89543 14.8955 6 16.0001 6C17.1046 6 18.0001 6.89543 18.0001 8Z" fill="#042F2E"/>
<path d="M14.0001 15C14.0001 12.7909 12.2092 11 10.0001 11C7.79092 11 6.00006 12.7909 6.00006 15V18H14.0001V15Z" fill="#042F2E"/>
<path d="M6.00006 8C6.00006 9.10457 5.10463 10 4.00006 10C2.89549 10 2.00006 9.10457 2.00006 8C2.00006 6.89543 2.89549 6 4.00006 6C5.10463 6 6.00006 6.89543 6.00006 8Z" fill="#042F2E"/>
<path d="M16.0001 18V15C16.0001 13.9459 15.7282 12.9552 15.2508 12.0943C15.4903 12.0327 15.7414 12 16.0001 12C17.6569 12 19.0001 13.3431 19.0001 15V18H16.0001Z" fill="#042F2E"/>
<path d="M4.74932 12.0943C4.27191 12.9552 4.00006 13.9459 4.00006 15V18H1.00006V15C1.00006 13.3431 2.34321 12 4.00006 12C4.25877 12 4.50983 12.0327 4.74932 12.0943Z" fill="#042F2E"/>
</svg>