<svg xmlns="http://www.w3.org/2000/svg" width="16" height="16" viewBox="0 0 16 16" fill="none">
<path d="M7.99984 9.33317V10.6665C5.7907 10.6665 3.99984 12.4574 3.99984 14.6665H2.6665C2.6665 11.721 5.05432 9.33317 7.99984 9.33317ZM7.99984 8.6665C5.78984 8.6665 3.99984 6.8765 3.99984 4.6665C3.99984 2.4565 5.78984 0.666504 7.99984 0.666504C10.2098 0.666504 11.9998 2.4565 11.9998 4.6665C11.9998 6.8765 10.2098 8.6665 7.99984 8.6665ZM7.99984 7.33317C9.47317 7.33317 10.6665 6.13984 10.6665 4.6665C10.6665 3.19317 9.47317 1.99984 7.99984 1.99984C6.5265 1.99984 5.33317 3.19317 5.33317 4.6665C5.33317 6.13984 6.5265 7.33317 7.99984 7.33317ZM9.72957 12.5408C9.6883 12.3672 9.6665 12.1861 9.6665 11.9998C9.6665 11.8136 9.6883 11.6325 9.7295 11.4589L9.06844 11.0772L9.7351 9.9225L10.3966 10.3044C10.6587 10.0566 10.9782 9.86877 11.3332 9.7631V8.99984H12.6665V9.7631C13.0214 9.86877 13.3409 10.0566 13.603 10.3044L14.2646 9.92244L14.9313 11.0772L14.2702 11.4588C14.3114 11.6325 14.3332 11.8136 14.3332 11.9998C14.3332 12.186 14.3114 12.3672 14.2702 12.5408L14.9313 12.9224L14.2646 14.0772L13.603 13.6952C13.341 13.9431 13.0215 14.1309 12.6666 14.2365V14.9998H11.3332V14.2366C10.9783 14.131 10.6588 13.9432 10.3967 13.6952L9.73517 14.0772L9.06844 12.9225L9.72957 12.5408ZM11.9998 12.9998C12.5521 12.9998 12.9998 12.5521 12.9998 11.9998C12.9998 11.4476 12.5521 10.9998 11.9998 10.9998C11.4476 10.9998 10.9998 11.4476 10.9998 11.9998C10.9998 12.5521 11.4476 12.9998 11.9998 12.9998Z" fill="#18181B"/>
</svg>