<svg xmlns="http://www.w3.org/2000/svg" width="16" height="16" viewBox="0 0 16 16" fill="none">
<path d="M1.3335 14.6665C1.3335 11.721 3.72131 9.33317 6.66683 9.33317C9.61236 9.33317 12.0002 11.721 12.0002 14.6665H10.6668C10.6668 12.4574 8.87596 10.6665 6.66683 10.6665C4.45769 10.6665 2.66683 12.4574 2.66683 14.6665H1.3335ZM6.66683 8.6665C4.45683 8.6665 2.66683 6.8765 2.66683 4.6665C2.66683 2.4565 4.45683 0.666504 6.66683 0.666504C8.87683 0.666504 10.6668 2.4565 10.6668 4.6665C10.6668 6.8765 8.87683 8.6665 6.66683 8.6665ZM6.66683 7.33317C8.14016 7.33317 9.3335 6.13984 9.3335 4.6665C9.3335 3.19317 8.14016 1.99984 6.66683 1.99984C5.1935 1.99984 4.00016 3.19317 4.00016 4.6665C4.00016 6.13984 5.1935 7.33317 6.66683 7.33317ZM12.1893 9.8017C14.0431 10.6372 15.3335 12.5012 15.3335 14.6665H14.0002C14.0002 13.0425 13.0324 11.6446 11.642 11.0179L12.1893 9.8017ZM11.731 2.27531C13.0631 2.82452 14.0002 4.13558 14.0002 5.6665C14.0002 7.57997 12.5363 9.14997 10.6668 9.31824V7.97624C11.798 7.81464 12.6668 6.8425 12.6668 5.6665C12.6668 4.74607 12.1346 3.95052 11.3608 3.57074L11.731 2.27531Z" fill="#18181B"/>
</svg>