<svg xmlns="http://www.w3.org/2000/svg" width="16" height="16" viewBox="0 0 16 16" fill="none">
<path fill-rule="evenodd" clip-rule="evenodd" d="M7.99984 3.33333C7.26346 3.33333 6.6665 3.93029 6.6665 4.66667C6.6665 5.40305 7.26346 6 7.99984 6C8.73622 6 9.33317 5.40305 9.33317 4.66667C9.33317 3.93029 8.73622 3.33333 7.99984 3.33333ZM5.33317 4.66667C5.33317 3.19391 6.52708 2 7.99984 2C9.4726 2 10.6665 3.19391 10.6665 4.66667C10.6665 6.13943 9.4726 7.33333 7.99984 7.33333C6.52708 7.33333 5.33317 6.13943 5.33317 4.66667ZM3.33317 6C2.96498 6 2.6665 6.29848 2.6665 6.66667C2.6665 7.03486 2.96498 7.33333 3.33317 7.33333C3.70136 7.33333 3.99984 7.03486 3.99984 6.66667C3.99984 6.29848 3.70136 6 3.33317 6ZM1.33317 6.66667C1.33317 5.5621 2.2286 4.66667 3.33317 4.66667C4.43774 4.66667 5.33317 5.5621 5.33317 6.66667C5.33317 7.77124 4.43774 8.66667 3.33317 8.66667C2.2286 8.66667 1.33317 7.77124 1.33317 6.66667ZM12.6665 6C12.2983 6 11.9998 6.29848 11.9998 6.66667C11.9998 7.03486 12.2983 7.33333 12.6665 7.33333C13.0347 7.33333 13.3332 7.03486 13.3332 6.66667C13.3332 6.29848 13.0347 6 12.6665 6ZM10.6665 6.66667C10.6665 5.5621 11.5619 4.66667 12.6665 4.66667C13.7711 4.66667 14.6665 5.5621 14.6665 6.66667C14.6665 7.77124 13.7711 8.66667 12.6665 8.66667C11.5619 8.66667 10.6665 7.77124 10.6665 6.66667ZM7.99984 9.33333C6.87812 9.33333 5.91661 10.0261 5.52293 11.0097C5.40072 11.315 5.33317 11.6488 5.33317 12V12.6667H10.6665V12C10.6665 11.6488 10.599 11.315 10.4767 11.0097C10.0831 10.0261 9.12155 9.33333 7.99984 9.33333ZM11.9998 12.6667H13.9998V12C13.9998 11.2636 13.4029 10.6667 12.6665 10.6667C12.3625 10.6667 12.0823 10.768 11.8577 10.9398C11.9504 11.278 11.9998 11.6336 11.9998 12V12.6667ZM11.2856 9.71844C10.5635 8.68038 9.36164 8 7.99984 8C6.63804 8 5.4362 8.68038 4.71409 9.71844C4.31144 9.47427 3.8387 9.33333 3.33317 9.33333C1.86041 9.33333 0.666504 10.5272 0.666504 12V13.3333C0.666504 13.7015 0.964981 14 1.33317 14H14.6665C15.0347 14 15.3332 13.7015 15.3332 13.3333V12C15.3332 10.5272 14.1393 9.33333 12.6665 9.33333C12.161 9.33333 11.6882 9.47427 11.2856 9.71844ZM4.14202 10.9398C3.91738 10.768 3.63722 10.6667 3.33317 10.6667C2.59679 10.6667 1.99984 11.2636 1.99984 12V12.6667H3.99984V12C3.99984 11.6336 4.04926 11.278 4.14202 10.9398Z" fill="#09090B"/>
</svg>