<svg xmlns="http://www.w3.org/2000/svg" width="20" height="20" viewBox="0 0 20 20" fill="none">
<path d="M10 13.6083C8.00833 13.6083 6.39166 11.9916 6.39166 9.99993C6.39166 8.00827 8.00833 6.3916 10 6.3916C11.9917 6.3916 13.6083 8.00827 13.6083 9.99993C13.6083 11.9916 11.9917 13.6083 10 13.6083ZM10 7.6416C8.7 7.6416 7.64166 8.69993 7.64166 9.99993C7.64166 11.2999 8.7 12.3583 10 12.3583C11.3 12.3583 12.3583 11.2999 12.3583 9.99993C12.3583 8.69993 11.3 7.6416 10 7.6416Z" fill="#09090B"/>
<path d="M9.99999 17.5167C6.86666 17.5167 3.90833 15.6834 1.87499 12.5001C0.991661 11.1251 0.991661 8.8834 1.87499 7.50007C3.91666 4.31673 6.87499 2.4834 9.99999 2.4834C13.125 2.4834 16.0833 4.31673 18.1167 7.50007C19 8.87507 19 11.1167 18.1167 12.5001C16.0833 15.6834 13.125 17.5167 9.99999 17.5167ZM9.99999 3.7334C7.30833 3.7334 4.73333 5.35007 2.93333 8.17507C2.30833 9.15007 2.30833 10.8501 2.93333 11.8251C4.73333 14.6501 7.30833 16.2667 9.99999 16.2667C12.6917 16.2667 15.2667 14.6501 17.0667 11.8251C17.6917 10.8501 17.6917 9.15007 17.0667 8.17507C15.2667 5.35007 12.6917 3.7334 9.99999 3.7334Z" fill="#09090B"/>
</svg>