<svg xmlns="http://www.w3.org/2000/svg" width="17" height="16" viewBox="0 0 17 16" fill="none">
<path d="M2.83139 5.37651L3.68903 12.6665H13.3177L14.1753 5.37651L11.5021 7.15866L8.5034 2.96042L5.50463 7.15866L2.83139 5.37651ZM2.37051 3.46679L5.17004 5.33313L7.96087 1.42595C8.17487 1.12635 8.59127 1.05695 8.89087 1.27096C8.95073 1.31372 9.00307 1.36609 9.04587 1.42595L11.8367 5.33313L14.6362 3.46679C14.9426 3.26255 15.3565 3.34533 15.5607 3.65169C15.6485 3.78343 15.6866 3.94213 15.6681 4.09938L14.5727 13.4111C14.5331 13.7468 14.2486 13.9998 13.9105 13.9998H3.0962C2.75815 13.9998 2.4736 13.7468 2.4341 13.4111L1.33861 4.09938C1.29559 3.73371 1.55715 3.40241 1.92282 3.35939C2.08007 3.34089 2.23877 3.37896 2.37051 3.46679ZM8.5034 9.99979C7.767 9.99979 7.17007 9.40286 7.17007 8.66646C7.17007 7.93006 7.767 7.33313 8.5034 7.33313C9.23974 7.33313 9.83673 7.93006 9.83673 8.66646C9.83673 9.40286 9.23974 9.99979 8.5034 9.99979Z" fill="#042F2E"/>
</svg>