<svg xmlns="http://www.w3.org/2000/svg" width="14" height="14" viewBox="0 0 14 14" fill="none">
<path fill-rule="evenodd" clip-rule="evenodd" d="M5.77994 2.1692C6.31517 1.21769 7.68513 1.21769 8.22035 2.1692L12.1266 9.11358C12.6515 10.0468 11.9771 11.1999 10.9064 11.1999H3.09393C2.02318 11.1999 1.34878 10.0468 1.87373 9.11358L5.77994 2.1692ZM7.70009 9.10002C7.70009 9.48662 7.38669 9.80002 7.00009 9.80002C6.61349 9.80002 6.30009 9.48662 6.30009 9.10002C6.30009 8.71343 6.61349 8.40002 7.00009 8.40002C7.38669 8.40002 7.70009 8.71343 7.70009 9.10002ZM7.00009 3.50002C6.61349 3.50002 6.30009 3.81343 6.30009 4.20002V6.30002C6.30009 6.68662 6.61349 7.00002 7.00009 7.00002C7.38668 7.00002 7.70009 6.68662 7.70009 6.30002V4.20002C7.70009 3.81343 7.38668 3.50002 7.00009 3.50002Z" fill="#B91C1C"/>
</svg>