<svg xmlns="http://www.w3.org/2000/svg" width="21" height="20" viewBox="0 0 21 20" fill="none">
<path d="M20.3301 19.7173C20.3301 19.9058 20.09 20 19.6098 20H14.0822C13.8812 20 13.2279 19.3498 12.1224 18.0495C11.028 16.7397 10.4529 16.0801 10.3971 16.0707C10.1849 16.212 9.55398 16.9329 8.50428 18.2332C7.55509 19.4111 6.96883 20 6.74549 20H1.21785C0.737672 20 0.497582 19.9058 0.497582 19.7173V15.1661C0.497582 14.9211 1.18435 14.0966 2.55788 12.6926C3.93142 11.2792 4.61819 10.4075 4.61819 10.0777C4.61819 9.77621 3.92025 8.91873 2.52438 7.5053C1.12851 6.08245 0.430581 5.24853 0.430581 5.00353C0.430581 4.75854 0.436164 4.38634 0.447331 3.88693C0.458498 3.37809 0.464081 2.99647 0.464081 2.74205C0.464081 2.46879 0.441748 2.05889 0.39708 1.51237C0.352412 0.965842 0.330078 0.555948 0.330078 0.282686C0.330078 0.0942285 0.570167 0 1.05035 0C1.37419 0 1.87112 0.0376914 2.54113 0.113074C3.22232 0.188457 3.73041 0.226148 4.06542 0.226148C4.34459 0.226148 4.76894 0.216726 5.33845 0.19788C5.91913 0.179034 6.34906 0.169611 6.62823 0.169611C6.84041 0.169611 7.49926 0.824499 8.60478 2.13428C9.72148 3.43463 10.3022 4.08952 10.3468 4.09894C10.5478 3.9576 11.2123 3.23675 12.3401 1.9364C13.3563 0.758539 13.9817 0.169611 14.2162 0.169611H19.5261C20.0062 0.169611 20.2463 0.268551 20.2463 0.466431C20.2463 0.720848 20.2296 1.1119 20.1961 1.63958C20.1626 2.15783 20.1458 2.54417 20.1458 2.79859C20.1458 3.06243 20.1626 3.45347 20.1961 3.97173C20.2296 4.48057 20.2463 4.86219 20.2463 5.11661C20.2463 5.42756 19.5428 6.31802 18.1358 7.78799C16.7399 9.24853 16.042 9.99764 16.042 10.0353C16.042 10.2238 16.7567 11.0436 18.186 12.4947C19.6154 13.9458 20.3301 14.7797 20.3301 14.9965V19.7173Z" fill="#14B8A6"/>
</svg>