<svg xmlns="http://www.w3.org/2000/svg" width="18" height="18" viewBox="0 0 18 18" fill="none">
<path d="M2.14394 2.15793L11.572 0.811067C11.777 0.78178 11.9669 0.924242 11.9963 1.12927C11.9987 1.14683 12 1.16456 12 1.1823V16.8176C12 17.0246 11.8321 17.1926 11.625 17.1926C11.6072 17.1926 11.5895 17.1913 11.572 17.1887L2.14394 15.8419C1.77445 15.7891 1.5 15.4727 1.5 15.0995V2.90039C1.5 2.52716 1.77445 2.21072 2.14394 2.15793ZM3 3.55087V14.449L10.5 15.5204V2.47943L3 3.55087ZM12.75 14.2499H15V3.74992H12.75V2.24992H15.75C16.1642 2.24992 16.5 2.58571 16.5 2.99992V14.9999C16.5 15.4142 16.1642 15.7499 15.75 15.7499H12.75V14.2499ZM7.65 8.99994L9.75 11.9999H7.95L6.75 10.2857L5.54999 11.9999H3.75L5.85 8.99994L3.75 5.99992H5.54999L6.75 7.71422L7.95 5.99992H9.75L7.65 8.99994Z" fill="#09090B"/>
</svg>