<svg xmlns="http://www.w3.org/2000/svg" width="137" height="32" viewBox="0 0 137 32" fill="none">
<path fill-rule="evenodd" clip-rule="evenodd" d="M18.6634 6.14801C18.5697 6.05426 18.4425 6.00159 18.31 6.00159H12.4999C12.2238 6.00159 12 6.22541 12 6.50151V12.3296C12 12.4622 12.0527 12.5894 12.1464 12.6831L15.1098 15.6465C15.305 15.8417 15.305 16.1582 15.1098 16.3535L12.1464 19.3168C12.0527 19.4106 12 19.5377 12 19.6703V25.4984C12 25.7745 12.2238 25.9983 12.4999 25.9983H18.3363C18.4689 25.9983 18.596 25.9457 18.6898 25.8519L21.6268 22.9149C21.822 22.7197 22.1386 22.7197 22.3338 22.9149L25.2708 25.8519C25.3646 25.9457 25.4917 25.9983 25.6243 25.9983H31.4968C31.7729 25.9983 31.9967 25.7745 31.9967 25.4984V19.7065C31.9967 19.5739 31.9441 19.4467 31.8503 19.353L28.8508 16.3535C28.6556 16.1582 28.6556 15.8417 28.8508 15.6465L31.8503 12.647C31.9441 12.5532 31.9967 12.426 31.9967 12.2935V6.50151C31.9967 6.22541 31.7729 6.00159 31.4968 6.00159H25.6506C25.518 6.00159 25.3909 6.05426 25.2971 6.14801L22.3338 9.11136C22.1386 9.30659 21.822 9.30659 21.6268 9.11136L18.6634 6.14801ZM13.4998 8.00126C13.4998 7.72516 13.7236 7.50134 13.9997 7.50134H17.3726C17.5052 7.50134 17.6323 7.55401 17.7261 7.64777L20.4085 10.3302C20.6037 10.5254 20.6037 10.8419 20.4085 11.0372L17.0356 14.4101C16.8404 14.6053 16.5238 14.6053 16.3286 14.4101L13.6462 11.7277C13.5524 11.6339 13.4998 11.5068 13.4998 11.3742V8.00126ZM17.9001 15.9816C17.9 15.9815 17.9 15.9813 17.9001 15.9812L21.9796 11.9017C21.9797 11.9016 21.9799 11.9016 21.9801 11.9017C21.9802 11.9019 21.9804 11.9019 21.9805 11.9017L26.2345 7.64777C26.3282 7.55401 26.4554 7.50134 26.588 7.50134H29.9971C30.2732 7.50134 30.497 7.72516 30.497 8.00126V11.4005C30.497 11.5331 30.4443 11.6603 30.3506 11.754L26.4762 15.6284C26.281 15.8236 26.281 16.1401 26.4762 16.3354L30.3506 20.2097C30.4443 20.3035 30.497 20.4307 30.497 20.5632V23.9987C30.497 24.2748 30.2732 24.4986 29.9971 24.4986H26.5617C26.4291 24.4986 26.3019 24.4459 26.2082 24.3522L22.3338 20.4778C22.1386 20.2826 21.822 20.2826 21.6268 20.4778L17.7524 24.3522C17.6587 24.4459 17.5315 24.4986 17.3989 24.4986H13.9997C13.7236 24.4986 13.4998 24.2748 13.4998 23.9987V20.5896C13.4998 20.457 13.5524 20.3298 13.6462 20.2361L17.9001 15.9821C17.9003 15.982 17.9003 15.9818 17.9001 15.9816Z" fill="black"/>
<path d="M43.0927 26H40.5787C37.4782 26 35.5508 24.6034 35.5508 20.9721V6H40.1318V11.0279H43.0927V15.1341H40.1318V20.1899C40.1318 21.4469 40.7184 21.8939 41.8078 21.8939H43.0927V26Z" fill="black"/>
<path d="M53.2793 15.162H51.6592C50.5418 15.162 49.9832 15.581 49.9832 16.838V26H45.4022V16.0559C45.4022 12.4246 47.3016 11.0279 50.4301 11.0279H53.2793V15.162Z" fill="black"/>
<path d="M69.1408 19.352C69.1408 24.2123 66.4593 25.9966 62.1017 25.9966C57.4369 25.9966 55.1743 23.8212 55.1743 19.352V11.0279H59.7553V19.352C59.7553 21.2235 60.314 22.2011 62.1296 22.2011C63.8615 22.2011 64.5598 21.2793 64.5598 19.352V11.0279H69.1408V19.352Z" fill="black"/>
<path d="M82.491 26H78.9156C74.1111 26 71.3178 23.514 71.3178 18.514C71.3178 13.3743 74.4184 11.0279 78.9156 11.0279H82.491V15.162H78.8877C77.0441 15.162 75.8709 16.0838 75.8709 18.514C75.8709 20.8603 77.072 21.8939 78.8877 21.8939H82.491V26Z" fill="black"/>
<path d="M98.7216 11.0279L94.6713 16.6704C97.2132 17.0615 98.135 18.6816 98.135 21.2514V26H93.554V21.8939C93.554 20.7765 93.0233 20.2737 91.906 20.2737H89.6993V26H85.1183V6H89.6993V17.3687L93.4981 11.0279H98.7216Z" fill="black"/>
<path d="M114.438 18.2067C114.438 18.8492 114.355 19.8547 114.355 19.8547H104.969C105.137 21.1676 106.142 21.8939 107.567 21.8939H112.651V26H107.595C102.902 26 100.137 23.2346 100.137 18.2346C100.137 13.1229 103.181 10.6927 107.455 10.6927C112.008 10.6927 114.466 13.3743 114.438 18.2067ZM109.802 17.0056C109.802 15.7207 109.047 14.8268 107.399 14.8268C105.891 14.8268 104.997 15.581 104.802 17.0056H109.802Z" fill="black"/>
<path d="M124.345 15.162H122.725C121.607 15.162 121.049 15.581 121.049 16.838V26H116.468V16.0559C116.468 12.4246 118.367 11.0279 121.495 11.0279H124.345V15.162Z" fill="black"/>
</svg>